<?xml version="1.0" encoding="utf-8"?>
<!-- Generator: Adobe Illustrator 19.0.0, SVG Export Plug-In . SVG Version: 6.00 Build 0)  -->
<svg version="1.1" id="Layer_1" xmlns="http://www.w3.org/2000/svg" xmlns:xlink="http://www.w3.org/1999/xlink" x="0px" y="0px"
	 viewBox="0 0 725 535" style="enable-background:new 0 0 725 535;" xml:space="preserve">
<style type="text/css">
	.st0{fill:#DDB3FC;stroke:#FFFFFF;stroke-width:2;stroke-miterlimit:10;}
	.st1{fill:#FCB8DD;stroke:#FFFFFF;stroke-width:2;stroke-miterlimit:10;}
	.st2{fill:#E0FCC1;stroke:#FFFFFF;stroke-width:2;stroke-miterlimit:10;}
	.st3{fill:#D7FCE3;stroke:#FFFFFF;stroke-width:2;stroke-miterlimit:10;}
	.st4{fill:#FCF7B8;stroke:#FFFFFF;stroke-width:2;stroke-miterlimit:10;}
	.st5{fill:#CBFCD0;stroke:#FFFFFF;stroke-width:2;stroke-miterlimit:10;}
	.st6{fill:#B8FCE9;stroke:#FFFFFF;stroke-width:2;stroke-miterlimit:10;}
	.st7{fill:#D1C5FC;stroke:#FFFFFF;stroke-width:2;stroke-miterlimit:10;}
	.st8{fill:#FCC2D3;stroke:#FFFFFF;stroke-width:2;stroke-miterlimit:10;}
	.st9{fill:#FCCDC8;stroke:#FFFFFF;stroke-width:2;stroke-miterlimit:10;}
	.st10{fill:#CCFCF5;stroke:#FFFFFF;stroke-width:2;stroke-miterlimit:10;}
	.st11{fill:#FCE8D0;stroke:#FFFFFF;stroke-width:2;stroke-miterlimit:10;}
	.st12{fill:#F6FCD2;stroke:#FFFFFF;stroke-width:2;stroke-miterlimit:10;}
	.st13{fill:#B0C7F9;stroke:#FFFFFF;stroke-width:2;stroke-miterlimit:10;}
	.st14{fill:#B6E1FC;stroke:#FFFFFF;stroke-width:2;stroke-miterlimit:10;}
	.st15{fill:#B4B3FC;stroke:#FFFFFF;stroke-width:2;stroke-miterlimit:10;}
	.st16{fill:#D5F4FE;stroke:#FFFFFF;stroke-width:2;stroke-miterlimit:10;}
	.st17{fill:#E3FCCF;stroke:#FFFFFF;stroke-width:2;stroke-miterlimit:10;}
	.st18{fill:#EAC5FC;stroke:#FFFFFF;stroke-width:2;stroke-miterlimit:10;}
	.st19{fill:#C8EAE8;stroke:#FFFFFF;stroke-width:2;stroke-miterlimit:10;}
	.st20{fill:#FFFFFF;stroke:#FFFFFF;stroke-width:2;stroke-miterlimit:10;}
	.st21{fill:#FDB3B9;stroke:#FFFFFF;stroke-width:2;stroke-miterlimit:10;}
	.st22{fill:#D4DAFC;stroke:#FFFFFF;stroke-width:2;stroke-miterlimit:10;}
	.st23{fill:#C7FCB3;stroke:#FFFFFF;stroke-width:2;stroke-miterlimit:10;}
	.st24{fill:#FCCFEE;stroke:#FFFFFF;stroke-width:2;stroke-miterlimit:10;}
	.st25{fill:#C7EAE8;stroke:#FFFFFF;stroke-width:2;stroke-miterlimit:10;}
	.st26{fill:#FCDCB9;stroke:#FFFFFF;stroke-width:2;stroke-miterlimit:10;}
	.st27{fill:#FCE9B8;stroke:#FFFFFF;stroke-width:2;stroke-miterlimit:10;}
</style>
<path class="st0" d="M665.7,511.4l-4.6-3.9l-0.8-0.6l-1.8,0.7l-8.2-7.5l-5.7-2.3l-0.7-3.8l-6-2.8l-1.5-5l-4.5-3.7l-10.9-1.3
	l-7.3-6.7l-6.2-6.8l-1-6.8l-3.6-6.1l-1.6-9.4l-2.8-3.8l-0.2-1l1.1-1.2v-9.8l-0.8-3.8l-0.1-6.8l0.7-2.3l2.2,0.3l2,2.3l2.5-0.2l1.3,1
	l3.6-1.4v-2.2L608,415c0,0-4.1-0.5-4.3-0.7c-0.2-0.1-1.6-3.5-2.3-3.8c-0.7-0.3-4.5-2.2-5.2-3c-0.7-0.8-3.8-7.8-3.8-7.8l-6.4-4
	l-0.6-1.3l-3.1,1.2l-1.2,1.1l-3.3,0.4l-8.6-1.5l-0.8-4.1l-4-1.6l-3.8,3.1l-2.8-0.4l-3.3-1.7h-3.6l-0.3-1.1l-3.5-0.8h-3.5l-4.1-3
	l-6.3,0.1l-9.9,2.4l-3.5-2.4l-5.2-0.1l-1.6-0.6v-2.4l-2.4-3.7l-2.3-0.3l-3.2-2.9l-10.3-1.2l-2.7-2.3l-3.1-0.4l1.6-2.7h1.4l3.9-2.3
	l-5-4.7l-4.8,2l-0.4-3l-3.5-4.2l-5.8,0.3l-0.9-3.8v-2.6h-6.9l-2.3,2.7l1.4,1.1l-0.7,2.1l4.3,3.8l3.3,0.5l-1.7,3l-1.6-0.6l-1,0.8
	l2.1,2.4l-1.9,1.8l-3.5,0.6l4.6,17.3H453l-11.3,5h-8.4l-7.5,4.1l-3.3,5.8l-7,5.3l9.3,50.8l-21.7,15.3l-4.4,16.8l-8.6,4v19.1v0
	l275.6,0.8L665.7,511.4z"/>
<path class="st1" d="M415.7,406.6l7-5.3l3.3-5.8l7.5-4.1h8.4l11.3-5h19.3l-4.6-17.3l3.5-0.6l1.9-1.8l-2.1-2.4l1-0.8l1.6,0.6l1.7-3
	l-3.3-0.5l-4.3-3.8l0.7-2.1l-1.4-1.1l2.3-2.7h6.9v2.6l0.9,3.8l5.8-0.3l3.5,4.2l0.4,3l4.8-2l5,4.7l-3.9,2.3h-1.4l-1.6,2.7l3.1,0.4
	l2.7,2.3l10.3,1.2l3.2,2.9l2.3,0.3l2.4,3.7v2.4l1.6,0.6l5.2,0.1l3.5,2.4l9.9-2.4l6.3-0.1l4.1,3h3.5l3.5,0.8l0.3,1.1h3.6l3.3,1.7
	l2.8,0.4l3.8-3.1l4,1.6l0.8,4.1l8.6,1.5l3.3-0.4l1.2-1.1l3.1-1.2l-0.9-1.9l-2.5-2.1c0,0,0.9-2.5,0.9-2.6c0-0.2-2.7-4-2.7-4
	s-0.6-4.5-0.9-5c-0.3-0.6-0.4-0.8-0.4-0.8l-3.4-3.1l-1.4-4l-1.4-2.2c0,0-0.2-3.4-0.6-4.1c-0.5-0.7-1.8-2.8-2-3.4
	c-0.2-0.6-3.2-5.4-3.2-5.4l-3.9-7.4l-6.9-14.3l-7.4,0.4l-3.7-1.9l-22.1,6.6l-13.5,0.8l-2.6-2.5l-2.8,0.2l-3.3-5.9l-24,0.2v-2
	l-3.1-2.8v-2.3l-1.5-0.9l-3.1,3.5l-1.8-0.8l-3.3,4.4l-6.9,2.8l0.4,3.4l-2.2,0.3l-2.1,1.2l-3.8-0.5l-3.7,3.3l-1.8,7.6l-2.9,2.2v1.5
	l-1.8,0.3l-18.6-1.9l-2.2,1.9l-22.1,9.1l-1.2,3.7l5.8,13.2L415.7,406.6z"/>
<polygon class="st2" points="396.5,362.3 418.6,353.2 420.8,351.3 439.4,353.2 441.2,352.8 441.2,351.3 444.1,349.1 446,341.5 
	449.6,338.3 453.5,338.8 455.5,337.6 457.7,337.3 457.3,333.8 464.2,331 467.5,326.6 469.4,327.4 472.5,323.9 474,324.8 474,327.1 
	477,329.9 477,331.9 501,331.8 504.4,337.7 507.1,337.5 509.7,340 523.2,339.3 545.3,332.7 549,334.6 556.3,334.2 556.3,334.2 
	554.1,329.6 542.6,311.7 539.9,311.8 538.6,310.2 534.6,311.7 526.5,309 524.4,315.5 518.5,315.8 513.2,317.2 510.5,315.3 
	510.5,312.2 507,305.8 507.5,302.2 504.7,294.7 501.5,293 501.5,291.5 500,289.8 493,292.4 488.4,290.4 485,286.8 485,284.8 
	480,279.9 471.9,277 468.4,281.1 466.4,281.1 462.3,284.9 458.5,290.8 455.4,292.1 446.4,301.8 446.4,303.8 444.5,305.3 
	441.6,305.3 441.6,307.7 438.2,307 422.2,319.8 392.5,319.2 391.6,359.3 395.4,365.9 "/>
<polygon class="st3" points="513.2,317.2 518.5,315.8 524.4,315.5 526.5,309 534.6,311.7 538.6,310.2 539.9,311.8 542.6,311.7 
	542.6,311.7 540.2,307.9 533.1,291.3 526.5,282.9 527.5,272.6 523.8,263.9 521.5,260.2 521.3,253 514.6,248.1 513.3,243.8 
	493.6,260.8 492.1,261.2 484.8,272.4 474.8,275.5 471.9,277 480,279.9 485,284.8 485,286.8 488.4,290.4 493,292.4 500,289.8 
	501.5,291.5 501.5,293 504.7,294.7 507.5,302.2 507,305.8 510.5,312.2 510.5,315.3 "/>
<polygon class="st4" points="390.3,512.5 390.3,493.4 398.9,489.4 403.3,472.6 424.9,457.4 415.7,406.6 401.1,379.1 395.4,365.9 
	391.6,359.3 392.5,319.2 120.3,309 108.1,511.7 "/>
<polygon class="st5" points="366,318.2 334.8,231 336,191.4 338,190.3 338,182.3 335.8,181.3 336,174.6 326,174.6 322.4,172.3 
	312.9,172.3 312.9,173.8 294.4,173.3 290.9,181.4 281.1,183.6 277.2,183.7 274.5,186.8 270,187.3 268,189.1 264.6,186.8 
	261.3,186.3 257.5,182.6 254.3,182.3 253.4,181.2 228,225.8 125.6,220.8 120.3,309 "/>
<path class="st6" d="M228,225.8l25.3-44.6l9.2-127.8l-1.1-6.3l-0.7-0.7l-7.2,3.1l-10.3-2.7l-2.4-2.3l-0.7-2.6l-0.8-1.5v-1.4
	l-0.8-0.7l-5.7,0.4l-2.6-1L228,38l-1.5-1.9l-1.3-0.1l-1.9-1.9l-35.2-8l-11.9-4.1l-19,5.5L147,25.2l-2.4-5.8l-1.7,0.8l-0.8,3.6
	c0,0-4.3,1.9-5.6,3.2c-1.3,1.3-4.5,4.6-4.5,4.6v3.7l1.1,2.5l-1.1,6.2l2.5,6.8l2.6,10.8L132,77.8l-7.3,7.6l-3.9,7.8l4.1,10.6
	l-0.3,9.3l2.3,5.3l-1.6,7.3l0.4,2.8l4.7,10.8l-4.9,81.7L228,225.8z"/>
<polygon class="st7" points="386.3,276 350.6,275 366,318.2 392.5,319.2 422.2,319.8 438.2,307 441.6,307.7 441.6,305.3 
	444.5,305.3 446.4,303.8 446.4,301.8 455.4,292.1 458.5,290.8 462.3,284.9 466.4,281.1 468.4,281.1 471.9,277 474.8,275.5 
	484.8,272.4 492.1,261.2 493.6,260.8 513.3,243.8 513.3,243.8 513,242.6 509,238.5 507,232.5 508,227.8 505.3,223.7 509.2,222.6 
	507.7,219.5 466.5,248 458.7,258.6 446.3,267.9 441,267.5 434,264.5 427.1,268.8 425.3,268.9 420.9,273.8 419.4,272.5 416.6,273.7 
	413.8,268.2 412.5,268.8 406.3,273.8 "/>
<polygon class="st8" points="350.6,275 386.3,276 406.3,273.8 412.5,268.8 413.8,268.2 416.6,273.7 419.4,272.5 420.9,273.8 
	425.3,268.9 427.1,268.8 434,264.5 441,267.5 446.3,267.9 458.7,258.6 466.5,248 507.2,219.8 507.5,219.2 506.3,216.8 499.5,212.8 
	490.8,202 479.5,212.8 469,218.1 464.5,222.6 458,221.5 453.8,223.5 447.3,223.5 430.9,228.1 420.7,231.9 381.7,235 378.9,232.4 
	335.1,231.9 "/>
<path class="st9" d="M485.8,160l1.8,2.6l2.1-0.1l2.1,2.8c0,0-0.7,2.4-0.5,2.6s0.2,0.7,0.2,1.5s-0.2,3.3,0.4,4s1.9,3,1.8,3.7
	s-1.2,3.6-1.1,4.6s0.8,1.3,0.8,2.1s0,2,0.5,2.5s1.8,1.7,1.8,1.7l0.5,1.6l3.9,3.3l0.4,1.5l3.2,3.3c0,0,1.4,0,1.9,0.7s1.2,1.7,1.8,1.8
	s3.8,4,3.9,4.5s0,1.7,0.5,2s1.8,0.9,1.9,1.2s3.9,5.3,4,5.7s0.2,1.1,0.7,1.7s3.8,3.4,4.3,3.5s2.1-0.3,2.3,0.4s0.8,1.8,1.3,1.9
	s1.7,0,2,0.8s2.3,3.4,2.9,3.7s5.1,0.5,5.6,0.8s1.7,1.3,2,1.3s0.9-0.8,1-1.2s0.8-3.8,1.4-3.6s1.4,0.3,1.8-0.5s2.8-5.4,3.3-5.6
	s1.4-0.8,1.4-1.2c0-0.4,0.5-8.9,0.4-9.3c-0.1-0.4-0.1-0.5-0.1-0.5s-1.3-1.3-1.4-1.9c0-0.6-0.1-4.4-0.1-4.8s1.8-2.2,1.8-2.7
	c0-0.5,1-4.6,1.4-4.8c0.4-0.2,1.6-0.9,1.6-1.3s-0.2-3.1,0-3.4c0.2-0.3,2-3.1,2.2-3.3c0.1-0.2,0.3-1.7,0.4-1.9s1.9-2.7,1.9-3.3
	c0-0.5-0.2-5.1-0.2-5.5c0-0.4,1.2-1.5,1.2-1.8c0-0.4-0.5-4.1-0.2-4.4c0.3-0.3,1.6-0.9,1.6-1.9c0-1.1-0.6-2.7-0.6-3.7
	c0-0.4,0.1-1.3,0.3-2.1l-60.2,2.4l-0.3-1.4l-2.5-1.9l-1.1,0.8h-2.4l-1.1-1.4h-1l-1.7,1.5l-1.2,0.2L485.8,160z"/>
<path class="st10" d="M470,127.7v7.1l1.7,3.3l-0.1,4.6l3.9,2.1l0.7,4.6l2.2,2.1l0.1,1.4l2.2,1.7l2.3,1.3l2.8,4.1l0.9-1.2l1.2-0.2
	l1.7-1.5h1l1.1,1.4h2.4l1.1-0.8l2.5,1.9l0.3,1.4l60.2-2.4c0.2-1.2,0.5-2.4,0.7-2.7c0.4-0.4,1.6-1.5,1.6-2.3s-0.8-2.8,0-4.3
	s6.6-10.4,6.6-10.4s-1-4.8-1-5.9s-0.7-5.8-0.7-5.8s-10.1-30.3-11-31.2c-0.2-0.2-0.5-0.4-0.8-0.7l-23,1.6l-11.5-9l-5,3.7l0.5,3.3
	l-11.2,10.8l-3.8-3.8l-10.3,0.8l-5.8,2.8l-1.9-1.5l-5.1-0.3v4.1l0.7,5.3v5.2l-7.1,1.1v1.7l-1.5,0.9l-0.7,2.1L470,127.7z"/>
<path class="st11" d="M467.7,69.5l-0.7,2.2l1.5,3.7l0,4.6l-0.9,0.4l-0.4,5.6l5.5,6.2l0.3,3.9l3.2,8l5.1,0.3l1.9,1.5l5.8-2.8
	l10.3-0.8l3.8,3.8l11.2-10.8l-0.5-3.3l5-3.7l11.5,9l23-1.6c-1.1-0.8-2.6-1.7-2.7-2c-0.1-0.4,0.3-4.1-0.2-5s-1.1-1.8-1.1-2.6
	s-0.3-5.9-1-7.3s-9.6-22.9-10.1-24.2s-0.3-4.7-0.9-5.3s-1.1-1.8-1.1-1.8s-7.3,5.1-9.8,6s-8.6,4.3-13,4.4s-4.4,0.1-4.4,0.1
	s-2.6,0.7-3.9-0.1s-2.9-2.8-7.6-4.1s-9.1-1.4-10.2-0.9s-8.8,5.5-11.4,6.4s-5.2,1.7-5.2,1.7s-1.2,0.2-2.5,0.2l0,0l-3.1,2.6
	L467.7,69.5z"/>
<path class="st12" d="M355.3,52.8H354l-0.4,2.8l-4.8,1l-0.6,1.1l-0.5,1.5l1.7,0.2L350,61l-1,1.3v0.4l0.8,1l0,0.9l-1.9,0.7l-0.7,0.5
	l2.5,4.3l4.8,6.4v1.2l-3,2.9l-0.8,2.1l-4.7,3.3l-1.7,0.3l-4.3,2.8l-3.3,6.5v40l28.1-15.7l11.5-15.2l5.9-0.3l0.3-3.4l-13.8-7.3
	l-1.5-3.2l2.6-0.9l3.7-3.9l7.8,4.3l7.1,1.1l1.1-1.9l-2.5-7.5l0.4-3.2l-1.3-15.3l-1.3-0.5l0.4-2.3l-4.4-4.8l-1.8-2.1l-2,0.5l-1.2-2.4
	l1-3.7l-0.9-1.8h-2l-1.8-5.2l-1.3-0.5l-2-3.5l0,0l-0.6,0.2l1,3.4c0,0-2.2,5.6-3.7,6.8s-7.9,1.3-7.9,1.3l-0.5,1.3L355.3,52.8z"/>
<path class="st13" d="M448,60.3l0.3,4.9l0.4,1.4l0.6,2.8l1.8-0.1l0.3-1.3l1.3-0.1l1.3,0.6l2.6-1.6l1.6,1.4l-0.6,2.8l1.1,3.1l5.2-1.5
	h3.8l-0.4-1l0.7-2.2l-2.4-5.9l3.1-2.6l0,0c-1.6,0.1-3.4,0-3.9-0.6c-0.9-1.2-3.8-5.1-5.1-6.6s-2.2-1.5-3.7-2.3s-1-2.1-2.2-2.3
	s-5.2-0.7-6.8-1.9c-0.8-0.6-2.2-1.7-3.6-2.8l0,0l-0.4,8.2l2,5L448,60.3z"/>
<g>
	<g>
		<polygon class="st14" points="467.1,71.7 467.4,70.6 467.4,70.6 		"/>
		<polygon class="st14" points="472.8,92.1 467.4,85.9 467.7,80.4 468.6,79.9 468.6,75.4 467.5,72.7 463.7,72.7 458.5,74.3 
			457.5,71.2 458.1,68.4 456.5,67 453.9,68.5 452.6,68 451.3,68.1 451.1,69.3 449.3,69.5 448.7,66.6 448.3,65.2 447,66.7 447,68.8 
			445.8,71.3 445.8,74.3 446.2,74.8 446.2,77.1 445.8,77.9 445.8,82.3 445,82.8 440.9,83 439,84.7 433.4,85.2 431.5,84.4 
			431.5,83.7 428.8,83.9 428.8,86.3 429.7,87.6 431.8,87.9 432,91.2 431.2,91.8 431.3,94.4 433.3,97.5 436.6,95.9 436.7,100.6 
			438.1,101.5 448.9,101.8 454.3,101.1 458.7,102.5 461.2,102.5 464.8,99.9 466.8,101.7 466.8,103.9 471.8,104.2 472.5,103.2 
			474.1,103.3 475,104.2 476.4,104 473.2,96 		"/>
	</g>
</g>
<polygon class="st15" points="439.2,101.5 438.1,101.5 436.7,100.6 436.6,95.9 433.3,97.5 431.3,94.4 431.2,91.8 432,91.2 
	431.8,87.9 429.7,87.6 428.8,86.3 428.8,83.9 431.5,83.7 431.5,84.4 433.4,85.2 439,84.7 440.9,83 445,82.8 445.8,82.3 445.8,77.9 
	446.2,77.1 446.2,74.8 445.8,74.3 445.8,71.3 447,68.8 447,66.7 448.3,65.2 448,60.3 444.8,57.6 439.3,58.5 438.2,59.9 430,60.5 
	426.1,65.8 426.1,67.5 425,68.4 423.2,68.4 422.7,69.4 423.2,71.2 421.2,73.4 419.9,73 413,73.4 411.8,76.7 413.3,81.7 412.3,83.3 
	409.2,86.1 408.5,91.1 412.4,94.9 412,96.8 415.8,99.4 417.5,99.1 420.6,96.2 421.5,98.6 424.2,98.8 428.2,104.4 433.9,105.6 
	439.1,105.5 439.8,102.5 439.2,101.5 "/>
<polygon class="st16" points="381.6,174.6 389.9,178.3 391.1,177.6 397.3,177.3 398,178.3 396.3,179.8 395.5,189.2 408,197.8 
	419,203 427.5,204.3 435.2,201.3 446.1,198.8 452.6,190.3 455.2,190.2 456.2,188.3 464.4,183.8 466.6,181 471.1,178.7 472.5,176.8 
	474.7,176 474.6,175.7 467.8,167.1 467.5,162 468.8,159.9 468.2,157.1 461,159.8 458.5,162.6 455,162.3 444.5,166.4 442,165.7 
	437.6,165.7 434.7,167.5 432.6,167.4 429.9,164.8 423.1,163.1 422,162.2 413.8,159.1 404.5,147.8 406.3,145.6 405.5,142.8 
	399.6,140.2 398.1,143.6 398.5,147.5 393.7,154.5 391.9,155.3 388.8,159.1 374,162 370.6,161.9 368,158.5 349.7,158.8 336.4,154.5 
	336,174.6 337.3,173.3 "/>
<polygon class="st17" points="338,182.3 338,190.3 336,191.4 334.8,231 335.4,232.8 335.1,231.9 378.9,232.4 381.7,235 420.7,231.9 
	430.9,228.1 447.3,223.5 453.8,223.5 458,221.5 464.5,222.6 469,218.1 479.5,212.8 490.8,202 488.5,199.2 488.3,196.6 480.5,187.6 
	478.2,186.2 474.7,176 472.5,176.8 471.1,178.7 466.6,181 464.4,183.8 456.2,188.3 455.2,190.2 452.6,190.3 446.1,198.8 
	435.2,201.3 427.5,204.3 419,203 408,197.8 395.5,189.2 396.3,179.8 398,178.3 397.3,177.3 391.1,177.6 389.9,178.3 381.6,174.6 
	337.3,173.3 336,174.6 335.8,181.3 "/>
<polygon class="st18" points="439.8,130.8 436.9,131.3 434.7,167.5 437.6,165.7 442,165.7 444.5,166.4 455,162.3 458.5,162.6 
	461,159.8 468.2,157.1 468.2,157.1 465.4,145.9 456.3,137.1 455.7,130.3 461.7,123.9 460.2,119.5 462.6,116.9 464.3,116.8 
	468.4,122.2 470,121.3 470,119.6 477,118.5 477,113.3 476.4,108.1 476.4,104 475,104.2 474.1,103.3 472.5,103.2 471.8,104.2 
	466.8,103.9 466.8,101.7 464.8,99.9 461.2,102.5 458.7,102.5 454.3,101.1 448.9,101.8 439.2,101.5 439.8,102.5 439.1,105.5 
	439.9,107.3 438.5,108.5 438.5,109.9 444.1,111.3 445,116.9 443.4,118.8 443.8,122.8 440.1,125.4 "/>
<polygon class="st19" points="428.2,104.4 425.4,103.9 417,105.5 414.4,103.9 412.7,105.5 409.3,105.5 408.5,108.3 406.8,108.8 
	405.4,110.5 406.1,115.3 407.6,116.1 409.2,123.2 408.5,125.3 409.7,126.1 412.7,126.1 414.4,127.1 418,124.9 422.6,127.1 
	424.1,127.1 429.4,130.6 433.1,130.6 436.9,131.3 439.8,130.8 440.1,125.4 443.8,122.8 443.4,118.8 445,116.9 444.1,111.3 
	438.5,109.9 438.5,108.5 439.9,107.3 439.1,105.5 433.9,105.6 "/>
<polygon class="st20" points="368.3,127.8 369.5,126 374.1,124.8 375.1,127.1 377.8,127.6 383.2,133.2 387,135.8 395.9,131.7 
	399.6,140.2 405.5,142.8 406.3,145.6 404.5,147.8 413.8,159.1 422,162.2 423.1,163.1 429.9,164.8 432.6,167.4 434.7,167.5 
	436.9,131.3 433.1,130.6 429.4,130.6 424.1,127.1 422.6,127.1 418,124.9 414.4,127.1 412.7,126.1 409.7,126.1 408.5,125.3 
	409.2,123.2 407.6,116.1 406.1,115.3 405.4,110.5 406.8,108.8 405.7,106.9 403.6,106.9 401.8,103.9 398.7,102.3 397.3,103.9 
	395.1,102.5 394.5,99.3 394,99 393.1,99.4 392.7,99.1 393.1,96.6 391.5,95.8 389.8,97.3 388.8,95.8 387,96.2 385.7,99.1 
	382.7,100.8 382.5,104.2 376.5,104.5 365,119.8 357.7,123.8 364.1,130.3 "/>
<path class="st21" d="M254.3,182.3l3.2,0.3l3.8,3.8l3.3,0.4l3.3,2.3l2-1.8l4.6-0.5l2.7-3.1l3.9-0.1l9.8-2.2l3.5-8.2l40.7-37.4
	l1.8-0.4v-40l-2.8-2.3l-9.6-5.3l-6-1.8l0.2-1.3l4.6-8.5l2-1.3l-0.1-2.9l3.3-1.2l-0.2-2l-1.9-0.6l-0.6-1c-2.4,1-5.1,1.7-7.9,1.8
	c-8.8,0.4-11.1-1.1-11.1-1.1l-3.7-3.8l-0.3-1.2c0,0-4.5-2.8-5.5-2.9c-1-0.1-3.9-0.5-4.7-1.1s-1.9-1.8-3.1-1.8
	c-1.2,0-3.3-1.8-4.6-1.8c-1.3,0-4.3,0.6-6.1,0.3s-6-1.3-6.3-1.3s-8.7-0.5-8.7-0.5l-1.5-0.7l-9.2,127.8L254.3,182.3z"/>
<polygon class="st22" points="322.4,172.3 312.9,172.3 312.9,173.8 294.4,173.3 335.1,135.8 336.9,135.4 357.7,123.8 364.1,130.3 
	368.3,127.8 369.5,126 374.1,124.8 375.1,127.1 377.8,127.6 383.2,133.2 387,135.8 395.9,131.7 399.6,140.2 398.1,143.6 
	398.5,147.5 393.7,154.5 391.9,155.3 388.8,159.1 374,162 370.6,161.9 368,158.5 349.7,158.8 336.4,154.5 336,174.6 326,174.6 "/>
<path class="st23" d="M325.9,67.4l0.6,1l1.9,0.6l0.2,2l-3.3,1.2l0.1,2.9l-2,1.3l-4.6,8.5l-0.2,1.3l6,1.8l9.6,5.3l2.8,2.3l3.3-6.5
	l4.3-2.8l1.7-0.3l4.7-3.3l0.8-2.1l3-2.9v-1.2l-4.8-6.4l-2.5-4.3l0.7-0.5l1.9-0.7l0-0.9l-0.8-1v-0.4l1-1.3l-0.7-1.6l-1.7-0.2l0.5-1.5
	l0.6-1.1l4.8-1l0.4-2.8h1.3l1.9-3.2l0.5-1.3l-0.9-1.8l-0.7-0.3c0,0-6.3,5-6.9,5.8s-2.3,2.9-2.3,2.9h-2.1c0,0-5.8,5-8,6.3
	C335.3,61.9,331.2,65.2,325.9,67.4C325.9,67.4,325.9,67.4,325.9,67.4z"/>
<path class="st24" d="M425.5,50.6l-1.6,1.3l-1.4,4.4l1,0.3l2.4-3.8l1.8,0.6l3.1-2.5l-0.8-1.3l0.1-1.3l1.7-1.7l0.1-1.7l4.7,0.3
	L437,46l6.1-0.1l0.1-1.5c-1.6-1.3-3-2.5-2.9-2.7c0.1-0.4,0.3-1.5,0-1.9c-0.3-0.4-1.7-2.4-2.2-2.6s-4-0.3-4.4-0.1
	c-0.5,0.2-3.5,2.5-3.8,2.5c-0.3,0-7.9,1.3-8.5,1.3l0,2.7l-0.4,3.3L425.5,50.6z"/>
<path class="st25" d="M442.8,52.7l0.3-6.7L437,46l-0.3-0.8l-4.7-0.3l-0.1,1.7l-1.7,1.7l-0.1,1.3l0.8,1.3l-3.1,2.5l-1.8-0.6l-2.4,3.8
	l-1-0.3l1.4-4.4l1.6-1.3l-4.7-3.6l0.4-3.3l0-2.7c-0.6,0-8.6-4.6-9.7-5c-0.1,0-0.3-0.1-0.6-0.2l-3,2l-0.4,1.6l0.9,2.3l0.8,12.3
	l-1.7,3.3l-1.3,3.2l1.4,0.6l1.7-0.7l1.6,1.9l-0.8,1.8l-2.5,1.6l-1.3,7.8l2.2,6.7l-0.8,4.2l1.5,1.8l3.1-2.8l1-1.6l-1.4-5l1.1-3.3
	l6.9-0.4l1.3,0.4l2-2.3l-0.5-1.7l0.5-1h1.8l1.2-1v-1.7l3.9-5.3l8.2-0.6l1.1-1.5l5.5-0.8L442.8,52.7z"/>
<path class="st26" d="M407.7,57l1.6-3.1l-0.8-12.3l-0.9-2.3l0.4-1.6l3-2c-2.4-0.7-9.9-2.9-10.4-2.9c-0.6,0-23.5,6.6-24.4,6.8
	c-0.9,0.2-2.6,0.1-3-0.1s-3.6-3-3.6-3l-0.5,0.1l2,3.5l1.3,0.5l1.8,5.2h2l0.9,1.8l-1,3.7l1.2,2.4l2-0.5l1.8,2.1l4.4,4.8l-0.4,2.3
	l1.3,0.5l0.4-2l3,1.4l5.1-1.2l3.1,0.3l1.2-1.5l0.2-4.3l2.2,0.8l2.3,0.3l0.9-1.6l1.9,0.9L407.7,57z"/>
<polygon class="st21" points="407.7,61 406.3,60.4 407.5,57.3 407.7,57 406.8,55.9 404.8,55 403.9,56.6 401.5,56.3 399.3,55.5 
	399.1,59.9 398,61.4 394.9,61.1 389.8,62.3 386.8,60.9 386.4,62.9 387.7,77.7 389.3,76.5 391.4,77.7 394,75.7 395.6,76.7 
	396.4,78.5 399.9,78.5 400.3,79.6 404.8,80.5 407.7,84.3 408.5,80.1 406.3,73.4 407.6,65.6 410.1,64 410.9,62.3 409.4,60.3 "/>
<polygon class="st27" points="424.8,104.8 427.5,105.5 424,99.6 421.3,99.2 420.6,96.7 417.3,99.4 415.5,99.5 411.9,96.6 
	412.5,94.7 408.9,90.6 410.1,85.7 408.7,83.8 405.7,87.8 401.7,91.2 400,95.7 400.8,100.2 400.5,102.4 401.3,102.9 402.8,106.1 
	404.9,106.2 405.8,108.1 407.5,107.8 408.6,105.1 411.9,105.4 413.8,103.9 416.3,105.7 "/>
<polygon class="st22" points="405,88.5 407.7,84.3 404.8,80.5 400.3,79.6 399.9,78.5 396.4,78.5 395.6,76.7 394,75.7 391.4,77.7 
	389.3,76.5 387.7,77.7 387.7,78.2 387.3,81.4 389.8,88.9 388.7,90.8 381.5,89.8 373.7,85.4 370,89.4 367.4,90.3 368.9,93.5 
	382.7,100.8 385.7,99.1 387,96.2 388.8,95.8 389.8,97.3 391.5,95.8 393.1,96.6 392.7,99.1 393.1,99.4 394,99 394.5,99.3 
	395.1,102.5 397.3,103.9 398.7,102.3 401,103.5 401,103.5 401.1,101.3 400,96.9 401.3,92.2 "/>
</svg>
